# xmcd CD database file
#
# Track frame offsets:
#	150
#	15602
#	32850
#	48162
#	61827
#	81038
#	99231
#	116377
#	136755
#	153716
#	172530
#	188108
#	205235
#	219720
#	239109
#
# Disc length: 3439 seconds
#
# Revision: 0
# Processed by: cddbd v1.5.2PL0 Copyright (c) Steve Scherf et al.
# Submitted via: CDex 1.70beta2
#
DISCID=c00d6d0f
DTITLE=Various Artist - Salsa mania 2 - CD 4
DYEAR=1900
DGENRE=Salsa
TTITLE0=Domingo - Porque tantas mentiras
TTITLE1=El Niño Jesús - La guiñaita
TTITLE2=Conjunto Chaney - Me estoy muriendo por dentro
TTITLE3=Ray de la Paz - Si vivir contigo
TTITLE4=Dominic - Amarla a usted
TTITLE5=Harvey - Cuéntale Tu
TTITLE6=Mel - Enamorado de ti
TTITLE7=Steven Falcón - La Infiel
TTITLE8=Willie Amadeo - Si nos dejan
TTITLE9=Jorge Luis - Hoy que te vas
TTITLE10=Grupo Galé - Tapando el hueco
TTITLE11=Sonora Latina - Dormir contigo
TTITLE12=Ismael Miranda - Un mundo raro
TTITLE13=Qayne Gorbea - Mucho cuidado
TTITLE14=Grupo Calle - Señora mía
EXTD=
EXTT0=
EXTT1=
EXTT2=
EXTT3=
EXTT4=
EXTT5=
EXTT6=
EXTT7=
EXTT8=
EXTT9=
EXTT10=
EXTT11=
EXTT12=
EXTT13=
EXTT14=
PLAYORDER=
